<?xml version="1.0" encoding="UTF-8"?>
<svg id="Layer_2" data-name="Layer 2" xmlns="http://www.w3.org/2000/svg" viewBox="0 0 284.71 93.11">
  <defs>
    <style>
      .cls-1 {
        fill: #231f20;
        stroke-width: 0px;
      }
    </style>
  </defs>
  <g id="Layer_1-2" data-name="Layer 1">
    <g>
      <path class="cls-1" d="M5.25,79.88h-.19l-.53,3.46H0v-49.16h5.68v13.45l-.19,6.01c3.07-2.64,6.8-4.67,10.54-4.67,8.67,0,13.32,6.73,13.32,17.07,0,11.46-6.86,18.13-14.53,18.13-3.12,0-6.6-1.61-9.57-4.29ZM23.48,66.12c0-7.4-2.53-12.37-8.84-12.37-2.84,0-5.79,1.56-8.96,4.58v17.58c2.95,2.55,5.95,3.49,8.17,3.49,5.55,0,9.64-5,9.64-13.28Z"/>
      <path class="cls-1" d="M35.95,49.81h4.69l.48,6.11h.19c2.33-4.26,5.76-6.94,9.54-6.94,1.48,0,2.53.19,3.58.69l-1.06,4.98c-1.16-.36-1.91-.55-3.25-.55-2.83,0-6.22,2.04-8.48,7.71v21.54h-5.68v-33.54Z"/>
      <path class="cls-1" d="M54.5,66.62c0-11.19,7.32-17.64,15.54-17.64s15.54,6.45,15.54,17.64-7.32,17.55-15.54,17.55-15.54-6.45-15.54-17.55ZM79.72,66.62c0-7.69-3.91-12.92-9.68-12.92s-9.68,5.23-9.68,12.92,3.91,12.83,9.68,12.83,9.68-5.14,9.68-12.83Z"/>
      <path class="cls-1" d="M86.94,49.81h5.8l4.98,19.37c.73,3.19,1.35,6.2,1.99,9.35h.28c.73-3.15,1.45-6.22,2.28-9.35l5.18-19.37h5.54l5.23,19.37c.83,3.19,1.55,6.2,2.33,9.35h.28c.73-3.15,1.35-6.17,2.08-9.35l4.89-19.37h5.41l-9,33.54h-6.91l-4.84-18.02c-.81-3.17-1.45-6.26-2.27-9.66h-.28c-.73,3.4-1.4,6.58-2.3,9.75l-4.7,17.94h-6.63l-9.33-33.54Z"/>
      <path class="cls-1" d="M134.28,79.52l2.8-3.74c2.91,2.35,5.87,3.97,9.9,3.97,4.4,0,6.59-2.35,6.59-5.21,0-3.45-3.96-4.98-7.67-6.36-4.7-1.72-10-4.03-10-9.69,0-5.37,4.3-9.52,11.57-9.52,4.18,0,7.83,1.71,10.43,3.77l-2.71,3.64c-2.31-1.71-4.68-2.99-7.65-2.99-4.23,0-6.18,2.25-6.18,4.81,0,3.19,3.65,4.4,7.45,5.82,4.84,1.82,10.23,3.79,10.23,10.18,0,5.44-4.32,9.97-12.24,9.97-4.76,0-9.36-2.02-12.51-4.66Z"/>
      <path class="cls-1" d="M162.76,66.62c0-10.92,7.36-17.64,15.08-17.64,8.55,0,13.38,6.14,13.38,15.74,0,1.2-.1,2.4-.27,3.22h-22.59c.41,7.11,4.75,11.71,11.14,11.71,3.22,0,5.86-1.04,8.35-2.68l2.03,3.72c-2.94,1.92-6.51,3.48-11.08,3.48-8.94,0-16.06-6.54-16.06-17.55ZM186.21,63.87c0-6.72-3.02-10.38-8.27-10.38-4.72,0-8.93,3.79-9.62,10.38h17.89Z"/>
    </g>
    <g>
      <path class="cls-1" d="M238.15,0c-25.71,0-46.56,20.84-46.56,46.56,0,10.34,3.38,19.89,9.08,27.62.1-7.05,5.64-10.99,18.76-12.36-.28-2.48-1.79-3.59-4.83-3.59-2.48,0-5.11.97-8.69,2.9l-4.14-7.73c4.83-2.9,9.8-4.55,15.18-4.55,8.97,0,14.35,4.83,14.35,16.15v19.18h-9.66l-.83-3.31h-.28c-2.55,2.3-5.35,3.87-8.71,4.1,7.49,5.14,16.55,8.16,26.32,8.16,25.71,0,46.56-20.84,46.56-46.56S263.86,0,238.15,0ZM250.9,84.17h-11.87v-34.5h11.87v34.5ZM244.96,45.4c-3.86,0-6.62-2.48-6.62-5.93s2.76-5.93,6.62-5.93,6.62,2.48,6.62,5.93-2.76,5.93-6.62,5.93Z"/>
      <path class="cls-1" d="M219.43,73.55v-4.69c-5.66.83-7.45,2.62-7.45,4.55,0,1.59,1.1,2.48,3.17,2.48,1.93,0,3.04-.97,4.28-2.35Z"/>
    </g>
  </g>
</svg>